<svg xmlns="http://www.w3.org/2000/svg" viewBox="0 0 256 256" width="256" height="256">
  <!-- Background circle -->
  <circle cx="128" cy="128" r="120" fill="#0078D4"/>
  <circle cx="128" cy="128" r="115" fill="none" stroke="#005A9E" stroke-width="3"/>

  <!-- Sound wave arcs - left -->
  <path d="M 60 128 Q 60 88, 80 68" fill="none" stroke="white" stroke-width="5" stroke-linecap="round" opacity="0.5"/>
  <path d="M 72 128 Q 72 96, 88 80" fill="none" stroke="white" stroke-width="4" stroke-linecap="round" opacity="0.7"/>
  <path d="M 84 128 Q 84 104, 96 92" fill="none" stroke="white" stroke-width="3" stroke-linecap="round" opacity="0.9"/>

  <!-- Sound wave arcs - right -->
  <path d="M 196 128 Q 196 88, 176 68" fill="none" stroke="white" stroke-width="5" stroke-linecap="round" opacity="0.5"/>
  <path d="M 184 128 Q 184 96, 168 80" fill="none" stroke="white" stroke-width="4" stroke-linecap="round" opacity="0.7"/>
  <path d="M 172 128 Q 172 104, 160 92" fill="none" stroke="white" stroke-width="3" stroke-linecap="round" opacity="0.9"/>

  <!-- Sound wave arcs - bottom left -->
  <path d="M 60 128 Q 60 168, 80 188" fill="none" stroke="white" stroke-width="5" stroke-linecap="round" opacity="0.5"/>
  <path d="M 72 128 Q 72 160, 88 176" fill="none" stroke="white" stroke-width="4" stroke-linecap="round" opacity="0.7"/>
  <path d="M 84 128 Q 84 152, 96 164" fill="none" stroke="white" stroke-width="3" stroke-linecap="round" opacity="0.9"/>

  <!-- Sound wave arcs - bottom right -->
  <path d="M 196 128 Q 196 168, 176 188" fill="none" stroke="white" stroke-width="5" stroke-linecap="round" opacity="0.5"/>
  <path d="M 184 128 Q 184 160, 168 176" fill="none" stroke="white" stroke-width="4" stroke-linecap="round" opacity="0.7"/>
  <path d="M 172 128 Q 172 152, 160 164" fill="none" stroke="white" stroke-width="3" stroke-linecap="round" opacity="0.9"/>

  <!-- Center letters BM -->
  <text x="128" y="142" font-family="Arial, Helvetica, sans-serif" font-size="56" font-weight="bold"
        fill="white" text-anchor="middle" dominant-baseline="middle">BM</text>
</svg>
